# xmcd CD database file
#
# Track frame offsets:
#	150
#	22341
#	44599
#	69277
#	89943
#	110483
#	129949
#	152329
#	179637
#	204701
#
# Disc length: 3060 seconds
#
# Revision: 2
# Processed by: cddbd v1.5.1PL0 Copyright (c) Steve Scherf et al.
# Submitted via: CDex 1.51
#
DISCID=910bf20a
DTITLE=New Age Academy - New Age of Classics - Dream of delight
DYEAR=2000
DGENRE=New Age
TTITLE0=Samuel Barber - Adagio for Strings
TTITLE1=Robert Schumann - Traeumerei
TTITLE2=Jaques Offenbach - Barcarolle
TTITLE3=Franz Schubert - Entr'acte No3
TTITLE4=Wolfgang Amadeus Wolfgang - Andantino
TTITLE5=Zdenek Fibich - Poème
TTITLE6=Hector Berlioz - Reveries
TTITLE7=Gustav Mahler - Adagietto
TTITLE8=Bas Fortgens - Dream of Delight
TTITLE9=Ludwig van Beethoven - Romance for Violin No2
EXTD=New Age of Classics - a unique harmony of new age and classical melodies YEAR: 2000
EXTT0=
EXTT1=
EXTT2=
EXTT3=from Rosamunde
EXTT4=from Concerto for Flute and Harp
EXTT5=
EXTT6=from Symphonie fantastique
EXTT7=from Symphony No5
EXTT8=
EXTT9=
PLAYORDER=
